<svg width="120" height="40" viewBox="0 0 120 40" fill="none" xmlns="http://www.w3.org/2000/svg">
  <!-- White background -->
  <rect width="120" height="40" fill="white" rx="4"/>
  
  <!-- KOOUK text in Saint Laurent style - refined, elegant, thin letterforms -->
  <g fill="#000000">
    <!-- K -->
    <path d="M8 8 L8 32 L10 32 L10 21 L16.5 32 L19 32 L12.5 21 L18 8 L15.5 8 L11.5 17.5 L10 15.5 L10 8 Z"/>
    
    <!-- O -->
    <ellipse cx="25" cy="20" rx="4.5" ry="12" stroke="#000000" stroke-width="2" fill="none"/>
    
    <!-- O -->
    <ellipse cx="35" cy="20" rx="4.5" ry="12" stroke="#000000" stroke-width="2" fill="none"/>
    
    <!-- U -->
    <path d="M45 8 L45 23 Q45 29 48 29 Q51 29 51 23 L51 8 L53 8 L53 23 Q53 32 48 32 Q43 32 43 23 L43 8 Z" stroke="#000000" stroke-width="1.5" fill="none"/>
    
    <!-- K -->
    <path d="M58 8 L58 32 L60 32 L60 21 L66.5 32 L69 32 L62.5 21 L68 8 L65.5 8 L61.5 17.5 L60 15.5 L60 8 Z"/>
  </g>
  
  <!-- Elegant underline accent -->
  <line x1="8" y1="35" x2="69" y2="35" stroke="#000000" stroke-width="0.5" opacity="0.6"/>
</svg>